<svg id="Ceratizit" xmlns="http://www.w3.org/2000/svg" viewBox="0 0 351.5 77.96"><defs><style>.cls-1{fill:#e42613;}.cls-2{fill:#5e5e5d;}</style></defs><polygon class="cls-1" points="60.15 31.52 86.85 77.75 89.77 77.75 63.14 31.63 63.08 31.52 60.15 31.52"/><polygon class="cls-1" points="55.35 31.52 82.04 77.75 84.96 77.75 58.34 31.63 58.27 31.52 55.35 31.52"/><polygon class="cls-1" points="50.52 31.52 77.21 77.75 80.13 77.75 53.51 31.63 53.44 31.52 50.52 31.52"/><polygon class="cls-1" points="65.06 65 72.4 77.75 75.33 77.75 66.5 62.5 65.06 65"/><polygon class="cls-1" points="62.64 69.19 67.54 77.64 67.6 77.75 70.49 77.75 64.11 66.65 62.64 69.19"/><polygon class="cls-1" points="60.25 73.37 62.7 77.63 62.76 77.75 65.69 77.75 61.7 70.84 60.25 73.37"/><polygon class="cls-1" points="57.71 77.75 60.86 77.75 59.28 74.99 57.71 77.75"/><polygon class="cls-2" points="0 77.75 53.29 77.75 59.68 66.7 59.87 66.36 25.54 66.36 16.05 49.94 0 77.75"/><polygon class="cls-2" points="44.9 0 18.3 46.02 18.24 46.13 24.83 57.51 42 27.77 60.95 27.77 44.9 0"/><path class="cls-1" d="M351.5,31.93v4.63h-5V58.09h-5.12V36.56h-5V31.93Zm-34.17,0h5.18V58.09h-5.18ZM302.67,58.09H286.11V53.58L296.56,36.8h-9.7V31.93h15.57V36.1L291.8,53.23h10.87ZM266.83,31.93H272V58.09h-5.18Zm-14.23,0v4.63h-5V58.09h-5.11V36.56h-5V31.93ZM208.87,52.59l-2,5.5h-5.35l10.23-26.16h4.42l10.11,26.16h-5.53l-2.09-5.5ZM217,47.73l-3.14-8.39-3.2,8.39ZM177.23,58.09h-5.17V31.93h6.27a27.63,27.63,0,0,1,4.48.24,9.62,9.62,0,0,1,2.5.63,8.31,8.31,0,0,1,2.91,12.44,7.63,7.63,0,0,1-4.6,2.67l6.57,10.18H184l-6.8-12.15Zm0-13.43h1.16a8.44,8.44,0,0,0,4.77-1.15,3.77,3.77,0,0,0,1.63-3.24,3.48,3.48,0,0,0-1.39-3.07,7,7,0,0,0-4.25-1h-1.92ZM155.94,58.09H141.7V31.93h14.24v4.63h-9.18v5.91h9.18V47h-9.18v6.42h9.18Zm-29.49-18.4h-6.28a7.59,7.59,0,0,0-2.67-2.26,8.48,8.48,0,0,0-6.57-.17A8.17,8.17,0,0,0,108.38,39a8.38,8.38,0,0,0-1.8,2.72,8.66,8.66,0,0,0-.65,3.19,8.21,8.21,0,0,0,2.33,6,7.68,7.68,0,0,0,5.7,2.43,8.59,8.59,0,0,0,3.49-.69,5.87,5.87,0,0,0,2.49-2.08h6.34a13.56,13.56,0,0,1-4.94,6,13.89,13.89,0,0,1-12.79.87A13.19,13.19,0,0,1,104,54.1a12.46,12.46,0,0,1-2.56-4.23,14.33,14.33,0,0,1-.87-5,12.89,12.89,0,0,1,1-5.15,13.6,13.6,0,0,1,3.07-4.46A13.38,13.38,0,0,1,114,31.41a13.47,13.47,0,0,1,7.44,2,14.91,14.91,0,0,1,5,6.26"/><path class="cls-2" d="M195.42,69.83a3.76,3.76,0,0,0-.84-.94,3.44,3.44,0,0,0-2.19-.76,3.91,3.91,0,1,0,2.26,7.11,3,3,0,0,0,1.17-1.73h-4.25V71.67h6.91a6.78,6.78,0,0,1-.51,2.86A6.08,6.08,0,0,1,192.4,78,5.93,5.93,0,1,1,198,69.83Z"/><path class="cls-2" d="M206.1,66.33h3.45a5.77,5.77,0,0,1,3.41.72,4,4,0,0,1,.84,5.23,3,3,0,0,1-1.89,1.24l2.55,4.22h-2.41L209,72.44h.45a3.55,3.55,0,0,0,2-.42,2.13,2.13,0,0,0,.73-1.67,2,2,0,0,0-.85-1.65,3.06,3.06,0,0,0-1.62-.35H208.4v9.39h-2.3Z"/><path class="cls-2" d="M223.7,72a3.7,3.7,0,1,0,3.7-3.91A3.75,3.75,0,0,0,223.7,72Zm-2.3.09a6,6,0,1,1,6,5.83,5.87,5.87,0,0,1-6-5.83Z"/><path class="cls-2" d="M243.37,66.33v7a3.4,3.4,0,0,0,.32,1.72,1.67,1.67,0,0,0,1.54.87,1.65,1.65,0,0,0,1.53-.82,3.37,3.37,0,0,0,.32-1.77v-7h2.3v7c0,1.69-.32,2.71-1.2,3.51a4.1,4.1,0,0,1-2.93,1.1,4.26,4.26,0,0,1-3-1.1,4.16,4.16,0,0,1-1.2-3.51v-7Z"/><path class="cls-2" d="M259.92,71.8h1.36a3,3,0,0,0,1.49-.29,1.55,1.55,0,0,0,.76-1.45,1.49,1.49,0,0,0-.79-1.42,3.18,3.18,0,0,0-1.56-.29h-1.26Zm1.16-5.47c1.93,0,2.7.27,3.36.78A3.78,3.78,0,0,1,265.73,70a3.86,3.86,0,0,1-1.2,2.89,4.42,4.42,0,0,1-3.21.9h-1.4v3.92h-2.3V66.33Z"/><rect class="cls-2" x="274.24" y="70.93" width="77.2" height="2.55"/><polygon class="cls-2" points="177.85 70.92 102.4 70.92 103.88 73.47 177.85 73.47 177.85 70.92"/></svg>